<?xml version="1.0" encoding="utf-8"?>
<!DOCTYPE svg>
<svg version="1.1" baseProfile="full" xmlns="http://www.w3.org/2000/svg" xmlns:xlink="http://www.w3.org/1999/xlink" x="0px" y="0px" width="32px" height="32px" viewBox="0 0 32 32" enable-background="new 0 0 32 32" xml:space="preserve">
<rect fill="#ffffff" width="32" height="32"/>
<path fill="#171515" d="M16,3a13,13,0,0,0-4.108,25.336c.65.119.887-.282.887-.627,0-.309-.011-1.126-.018-2.211-3.616.786-4.379-1.743-4.379-1.743a3.443,3.443,0,0,0-1.443-1.9c-1.18-.807.089-.79.089-.79A2.731,2.731,0,0,1,9.019,22.4a2.768,2.768,0,0,0,3.783,1.08,2.778,2.778,0,0,1,.825-1.738c-2.887-.328-5.922-1.443-5.922-6.425a5.025,5.025,0,0,1,1.338-3.488,4.676,4.676,0,0,1,.127-3.44s1.092-.35,3.575,1.333a12.322,12.322,0,0,1,6.509,0c2.482-1.682,3.571-1.333,3.571-1.333a4.669,4.669,0,0,1,.129,3.44,5.016,5.016,0,0,1,1.336,3.488c0,4.994-3.039,6.093-5.936,6.415a3.1,3.1,0,0,1,.883,2.407c0,1.738-.016,3.14-.016,3.566,0,.348.234.752.894.625A13,13,0,0,0,16,3Z"/>
</svg>
