<?xml version="1.0" encoding="utf-8"?>
<!DOCTYPE svg>
<svg version="1.1" baseProfile="full" xmlns="http://www.w3.org/2000/svg" xmlns:xlink="http://www.w3.org/1999/xlink" x="0px" y="0px" width="32px" height="32px" viewBox="0 0 32 32" enable-background="new 0 0 32 32" xml:space="preserve">
<rect fill="#de5145" width="32" height="32"/>
<g fill="#ffffff">
    <path d="M21.26,17.008V14.882h2.835V12.047H26.22v2.835h2.507v2.126H26.22v2.835H24.094V17.008Z"/>
    <path d="M19,14.882H11.339v2.835h4.252c-.666,2.017-1.587,3.257-4.135,3.257a4.668,4.668,0,0,1,0-9.335,4.451,4.451,0,0,1,3.051,1.147c.646-.646.592-.738,2.237-2.291a7.857,7.857,0,1,0-5.287,13.669C17.942,24.163,19.527,18.647,19,14.882Z"/>
</g>
</svg>
