<?xml version="1.0" encoding="utf-8"?>
<!DOCTYPE svg>
<svg version="1.1" baseProfile="full" xmlns="http://www.w3.org/2000/svg" xmlns:xlink="http://www.w3.org/1999/xlink" x="0px" y="0px" width="32px" height="32px" viewBox="0 0 32 32" enable-background="new 0 0 32 32" xml:space="preserve">
<g fill="#333333">
	<path d="M4,13c0-5,4-9,9-9c5,0,9,4,9,9c0,5-4,9-9,9C8,22,4,18,4,13z M13,19c3.3,0,6-2.7,6-6s-2.7-6-6-6s-6,2.7-6,6S9.7,19,13,19z"/>
	<path d="M17.5,19l1.5-1.5l4.5,3L28,25c0,0,0,1.5-0.75,2.25S25,28,25,28l-4.5-4.5L17.5,19z"/>
</g>
</svg>
