<?xml version="1.0" encoding="utf-8"?>
<!DOCTYPE svg>
<svg version="1.1" baseProfile="full" xmlns="http://www.w3.org/2000/svg" xmlns:xlink="http://www.w3.org/1999/xlink" x="0px" y="0px" width="32px" height="32px" viewBox="0 0 32 32" enable-background="new 0 0 32 32" xml:space="preserve">
<path fill="#333333" d="M26.486,22.966c-0.865,0-1.657,0.313-2.269,0.832l-5.184-3.715c0.343-0.703,0.536-1.493,0.536-2.328c0-1.149-0.365-2.214-0.986-3.083l6.097-6.134c0.526,0.314,1.14,0.494,1.797,0.494c1.941,0,3.514-1.575,3.514-3.517S28.419,2,26.478,2s-3.514,1.575-3.514,3.517c0,0.651,0.177,1.261,0.485,1.784l-6.118,6.124c-0.866-0.615-1.923-0.976-3.065-0.976c-2.032,0-3.797,1.144-4.688,2.824l-4.081-1.362c-0.159-0.813-0.874-1.426-1.733-1.426C2.791,12.485,2,13.276,2,14.252s0.791,1.767,1.766,1.767c0.456,0,0.871-0.173,1.184-0.457l4.082,1.342c-0.045,0.277-0.068,0.561-0.068,0.851c0,2.931,2.374,5.308,5.303,5.308c1.473,0,2.806-0.601,3.767-1.572l5.17,3.736c-0.149,0.39-0.231,0.813-0.231,1.256c0,1.942,1.573,3.517,3.514,3.517S30,28.425,30,26.483S28.427,22.966,26.486,22.966z"/>
</svg>
