<?xml version="1.0" encoding="utf-8"?>
<!DOCTYPE svg>
<svg version="1.1" baseProfile="full" xmlns="http://www.w3.org/2000/svg" xmlns:xlink="http://www.w3.org/1999/xlink" x="0px" y="0px" width="32px" height="32px" viewBox="0 0 32 32" enable-background="new 0 0 32 32" xml:space="preserve">
<path fill="#333333" d="M28.985,23.519c-0.062-0.383-0.302-0.711-0.662-0.906l-5.324-3.138l-0.044-0.025c-0.215-0.11-0.464-0.167-0.719-0.167c-0.446,0-0.872,0.169-1.168,0.466l-1.572,1.573c-0.067,0.064-0.286,0.156-0.353,0.16c-0.018-0.001-1.829-0.132-5.161-3.466c-3.327-3.327-3.468-5.144-3.469-5.144c0.002-0.093,0.093-0.311,0.158-0.379l1.34-1.34c0.472-0.473,0.614-1.258,0.334-1.866l-2.96-5.571C9.17,3.273,8.752,3,8.288,3C7.961,3,7.644,3.136,7.397,3.383L3.744,7.029c-0.35,0.349-0.652,0.958-0.718,1.448c-0.032,0.234-0.68,5.831,6.99,13.504C16.528,28.494,21.605,29,23.007,29l0,0c0.302,0,0.477-0.022,0.511-0.026c0.489-0.065,1.097-0.366,1.445-0.715l3.65-3.651C28.911,24.308,29.047,23.913,28.985,23.519z"/>
</svg>
