<svg baseProfile="full" xmlns="http://www.w3.org/2000/svg" width="32" height="32" viewBox="0 0 32 32"><path fill="#333" d="M28.985 23.52c-.062-.384-.302-.712-.662-.907L23 19.475l-.045-.025c-.215-.11-.464-.167-.72-.167-.445 0-.87.17-1.167.466l-1.572 1.572c-.067.064-.286.156-.353.16-.018 0-1.83-.132-5.16-3.466-3.328-3.327-3.47-5.144-3.47-5.144.002-.093.093-.31.158-.38l1.34-1.34c.473-.472.615-1.257.335-1.865l-2.96-5.57C9.17 3.272 8.752 3 8.288 3c-.327 0-.644.136-.89.383L3.743 7.03c-.35.348-.652.957-.718 1.447-.032.234-.68 5.83 6.99 13.504 6.512 6.514 11.59 7.02 12.99 7.02.303 0 .478-.022.512-.026.49-.065 1.097-.366 1.445-.715l3.65-3.652c.298-.3.434-.695.372-1.09z"/></svg>
