<?xml version="1.0" encoding="utf-8"?>
<!DOCTYPE svg>
<svg version="1.1" baseProfile="full" xmlns="http://www.w3.org/2000/svg" xmlns:xlink="http://www.w3.org/1999/xlink" x="0px" y="0px" width="24px" height="24px" viewBox="0 0 24 24" enable-background="new 0 0 24 24" xml:space="preserve">
<rect x="0.5" y="32.5" fill="#00ACED" width="24" height="24"/>
<path fill="#ffffff" d="M21.301,39.047c-0.647,0.287-1.344,0.48-2.074,0.568c0.747-0.447,1.318-1.154,1.588-1.998c-0.698,0.412-1.471,0.714-2.292,0.825c-0.659-0.703-1.599-1.141-2.636-1.141c-1.995,0-3.61,1.616-3.61,3.61c0,0.283,0,0.559,0.093,0.825c-3.002-0.151-5.662-1.588-7.425-3.773c-0.311,0.533-0.488,1.154-0.488,1.815c0,1.253,0.637,2.358,1.605,3.006c-0.591,0-1.147-0.182-1.635-0.451l0,0c0,1.748,1.237,3.208,2.896,3.541C7.021,45.957,6.701,46,6.372,46c-0.232,0-0.459,0-0.679,0c0.46,1.436,1.792,2.476,3.3,2.476c-1.235,0.97-2.793,1.547-4.484,1.547c-0.292,0-0.579,0-0.825-0.052c1.598,1.023,3.495,1.622,5.535,1.622c6.642,0,10.273-5.501,10.273-10.272c0-0.157,0-0.312,0-0.468C20.205,40.407,20.817,39.771,21.301,39.047z"/>
</svg>
