<?xml version="1.0" encoding="utf-8"?>
<!DOCTYPE svg>
<svg version="1.1" baseProfile="full" xmlns="http://www.w3.org/2000/svg" xmlns:xlink="http://www.w3.org/1999/xlink" x="0px" y="0px" width="32px" height="32px" viewBox="0 0 32 32" enable-background="new 0 0 32 32" xml:space="preserve">
<linearGradient id="svg-youtube-grad" gradientUnits="userSpaceOnUse" x1="-10.7437" y1="-31.3242" x2="-10.7437" y2="-46.3242" gradientTransform="matrix(1 0 0 1 26.7441 61.3242)">
	<stop offset="0" style="stop-color:#6d0d13"/>
	<stop offset="0.6" style="stop-color:#ab2624"/>
	<stop offset="1" style="stop-color:#cd332d"/>
</linearGradient>
<rect fill="#ebebeb" width="32" height="32"/>
<g fill="#242424">
	<path d="M8,2h1.61l1.037,4.397h0.101L11.736,2h1.624L11.5,8.436V13H9.901V8.641L8,2z"/>
	<path d="M13.248,6.986c0-0.605,0.19-1.087,0.573-1.447C14.203,5.18,14.717,5,15.361,5c0.587,0,1.069,0.189,1.443,0.568c0.375,0.379,0.563,0.866,0.563,1.462v4.041c0,0.67-0.184,1.195-0.551,1.576c-0.368,0.381-0.874,0.571-1.519,0.571c-0.621,0-1.118-0.196-1.49-0.59c-0.373-0.393-0.559-0.922-0.559-1.587V6.986z M14.709,11.188c0,0.215,0.05,0.382,0.151,0.499s0.246,0.176,0.433,0.176c0.192,0,0.346-0.06,0.459-0.18c0.112-0.12,0.17-0.285,0.17-0.496V6.927c0-0.17-0.059-0.309-0.174-0.414c-0.116-0.105-0.267-0.158-0.455-0.158c-0.174,0-0.312,0.053-0.421,0.158c-0.108,0.105-0.162,0.243-0.162,0.414V11.188z"/>
	<path d="M22.624,5v8h-1.421v-0.863c-0.262,0.318-0.533,0.561-0.816,0.727c-0.283,0.166-0.558,0.249-0.824,0.249c-0.327,0-0.575-0.116-0.741-0.35c-0.166-0.232-0.249-0.582-0.249-1.048V5h1.419v6.174c0,0.185,0.029,0.319,0.089,0.403c0.06,0.083,0.155,0.125,0.289,0.125c0.104,0,0.237-0.056,0.396-0.165c0.159-0.11,0.307-0.25,0.438-0.421V5H22.624z"/>
</g>
<path fill="url(#svg-youtube-grad)" d="M16,30c2.874,0.002,5.763,0,8.614-0.301c1.203-0.125,2.204-0.97,2.484-2.114c0.401-1.629,0.401-3.409,0.401-5.086l0,0c0-1.679-0.005-3.456-0.405-5.087c-0.281-1.145-1.281-1.988-2.484-2.113C21.757,15,18.874,14.999,16,15c-2.875-0.001-5.757,0-8.61,0.299c-1.204,0.125-2.204,0.969-2.485,2.113C4.504,19.043,4.5,20.82,4.5,22.499l0,0c0,1.677,0,3.457,0.401,5.086c0.281,1.145,1.281,1.989,2.485,2.114C10.238,30,13.126,30.002,16,30z"/>
<g fill="#ffffff">
	<polygon points="11.318,17 6.705,17 6.705,18.597 8.26,18.597 8.26,28 9.763,28 9.763,18.597 11.318,18.597"/>
	<path d="M13.774,26.063c-0.125,0.175-0.263,0.32-0.413,0.433s-0.274,0.169-0.372,0.169c-0.125,0-0.216-0.043-0.272-0.128c-0.056-0.084-0.084-0.223-0.084-0.414V20H11.3v6.681c0,0.479,0.078,0.837,0.234,1.076c0.157,0.239,0.389,0.358,0.698,0.358c0.25,0,0.509-0.086,0.774-0.256c0.266-0.171,0.522-0.42,0.768-0.747V28h1.335v-8h-1.335V26.063z"/>
	<path d="M18.945,19.861c-0.207,0-0.411,0.065-0.613,0.193c-0.201,0.127-0.394,0.313-0.572,0.559V17h-1.349v11h1.349v-0.619c0.175,0.246,0.364,0.427,0.568,0.544c0.206,0.118,0.438,0.176,0.699,0.176c0.396,0,0.697-0.15,0.905-0.454c0.21-0.305,0.314-0.74,0.314-1.312v-4.459c0-0.656-0.111-1.156-0.335-1.498C19.69,20.034,19.368,19.861,18.945,19.861z M18.874,26.117c0,0.255-0.039,0.44-0.116,0.553c-0.078,0.113-0.197,0.169-0.36,0.169c-0.113,0-0.221-0.029-0.323-0.087c-0.102-0.058-0.206-0.152-0.314-0.282v-5.007c0.09-0.11,0.181-0.192,0.274-0.245c0.094-0.052,0.188-0.08,0.282-0.08c0.182,0,0.319,0.072,0.416,0.213c0.093,0.14,0.142,0.346,0.142,0.616V26.117z"/>
	<path d="M25.179,24.17v-2.045c0-0.763-0.162-1.349-0.489-1.755c-0.329-0.405-0.798-0.609-1.409-0.609c-0.597,0-1.083,0.219-1.46,0.658c-0.378,0.439-0.566,1.008-0.566,1.706v3.605c0,0.774,0.171,1.382,0.515,1.824c0.344,0.441,0.813,0.662,1.412,0.662c0.664,0,1.163-0.208,1.498-0.626c0.334-0.416,0.5-1.037,0.5-1.86V25h-1.372v0.686c0,0.473-0.044,0.78-0.132,0.916c-0.088,0.139-0.242,0.208-0.465,0.208c-0.212,0-0.363-0.082-0.45-0.245c-0.088-0.164-0.132-0.456-0.132-0.879V24.17H25.179z M22.628,22.109c0-0.336,0.046-0.577,0.138-0.723c0.093-0.146,0.245-0.219,0.458-0.219c0.203,0,0.352,0.072,0.443,0.219c0.093,0.146,0.14,0.387,0.14,0.723V23h-1.179V22.109z"/>
</g>
</svg>
